<?xml version="1.0" encoding="UTF-8"?>
<svg width="500px" height="500px" viewBox="0 0 500 500" version="1.1" xmlns="http://www.w3.org/2000/svg" xmlns:xlink="http://www.w3.org/1999/xlink">
    <title>vr办公</title>
    <defs>
        <path d="M0.555749636,0.0281222707 C0.555749636,0.0281222707 7.96797671,2.41583697 5.97464338,6.73528384 L5.97464338,6.73528384 C5.3050655,8.18692868 8.38110626,10.9315284 7.23010189,13.9613683 L7.23010189,13.9613683 C6.70247453,15.3487336 6.4855313,18.1870742 7.31379913,17.7002911 L7.31379913,17.7002911 C8.29272198,17.1237846 7.7322853,13.159214 10.9121106,13.7176419 L10.9121106,13.7176419 C13.6928675,14.2050946 9.0486754,27.2645415 9.0486754,27.2645415 L9.0486754,27.2645415 C9.0486754,27.2645415 12.638952,22.2065502 13.5643086,17.2811354 L13.5643086,17.2811354 C15.2650364,8.24183406 13.0052111,1.54672489 10.1949927,0.454643377 L10.1949927,0.454643377 C9.17254731,0.0575836972 2.98430859,0.026783115 1.09944687,0.026783115 L1.09944687,0.026783115 C0.755953421,0.026783115 0.555749636,0.0281222707 0.555749636,0.0281222707" id="path-1"></path>
        <path d="M0.19216885,0.74657933 C1.3739738,6.06570597 0.751935953,15.0434061 1.68934498,20.3625328 L1.68934498,20.3625328 C1.82593886,20.3544978 1.87147016,20.5205531 1.91633188,20.6859389 L1.91633188,20.6859389 C1.96253275,20.8526638 2.00806405,21.0180495 2.14465793,21.0100146 L2.14465793,21.0100146 C2.20558952,19.9319942 2.31941776,13.6459971 3.50055313,13.5803785 L3.50055313,13.5803785 C3.51997089,13.5797089 3.51193595,13.5408734 3.51260553,13.520786 L3.51260553,13.520786 C3.5588064,12.7474236 3.56951965,12.0510626 3.54005822,11.4598253 L3.54005822,11.4598253 C3.34855895,7.62716157 2.82494905,3.46707424 0.782066958,0.484104803 L0.782066958,0.484104803 C0.585211063,0.63007278 0.389024745,0.74657933 0.19216885,0.74657933" id="path-3"></path>
        <path d="M0.493478894,3.92238719 C0.493478894,3.92238719 1.27487627,11.8642504 1.61100437,10.567278 L1.61100437,10.567278 C1.94780204,9.27030568 1.97726346,0.583871907 1.97726346,0.583871907 L1.97726346,0.583871907 L0.493478894,3.92238719 Z" id="path-5"></path>
        <polygon id="path-7" points="0.215606572 0.281721448 28.3379501 0.281721448 28.3379501 48.209607 0.215606572 48.209607"></polygon>
        <path d="M81.0416885,0.18279476 C82.7303639,0.18279476 84.0989811,1.55141194 84.0989811,3.23941776 L84.0989811,3.23941776 L84.0989811,4.94416303 C84.0989811,3.25615721 82.7303639,1.88754003 81.0416885,1.88754003 L81.0416885,1.88754003 L3.66459971,1.88754003 C1.97659389,1.88754003 0.60797671,3.25615721 0.60797671,4.94416303 L0.60797671,4.94416303 L0.60797671,3.23941776 C0.60797671,1.55141194 1.97659389,0.18279476 3.66459971,0.18279476 L3.66459971,0.18279476" id="path-9"></path>
        <path d="M1.88084425,0.967540029 C1.79781659,0.997001456 1.7188064,1.03114993 1.64180495,1.07065502 L1.64180495,1.07065502 C0.978922853,1.36995633 0.590567686,1.71947598 0.590567686,2.09577875 L0.590567686,2.09577875 L0.590567686,2.77406114 L0.590567686,28.8775546 L0.590567686,29.4071907 C0.590567686,30.7068413 3.79315866,31.7614265 7.7443377,31.7614265 L7.7443377,31.7614265 C11.6941776,31.7614265 14.8974381,30.7068413 14.8974381,29.4071907 L14.8974381,29.4071907 L14.8974381,28.8775546 L14.8974381,2.77406114 L14.8974381,2.09577875 C14.8974381,1.71947598 14.5084134,1.36995633 13.8462009,1.07065502 L13.8462009,1.07065502 C13.7691994,1.03114993 13.6895197,0.997001456 13.6071616,0.967540029 L13.6071616,0.967540029 C12.3142067,0.458660844 10.1715575,0.123871907 7.7443377,0.123871907 L7.7443377,0.123871907 C5.31577875,0.123871907 3.17379913,0.458660844 1.88084425,0.967540029" id="path-11"></path>
        <path d="M5.51330422,0.701717613 L5.30908297,1.61033479 L5.23609898,1.93708879 L5.18788937,2.15135371 L5.1811936,2.18148472 L0.571819505,22.7154623 C0.571819505,22.7154623 0.735866084,22.7201164 1.5313246,22.617671 L1.5313246,22.617671 C2.20291121,22.5299563 2.34285298,22.4690247 2.34285298,22.4690247 L2.34285298,22.4690247 L6.81496361,2.54841339 L6.86919942,2.30401747 L6.94285298,1.97659389 C6.94687045,1.95918486 6.94151383,1.94244541 6.94419214,1.92503639 L6.94419214,1.92503639 L7.13636099,1.06596798 C7.15912664,0.964861718 7.09551674,0.864425036 6.99441048,0.840989811 L6.99441048,0.840989811 L5.73828239,0.559097525 C5.72422125,0.556419214 5.71082969,0.55441048 5.69676856,0.55441048 L5.69676856,0.55441048 C5.61106259,0.55441048 5.53339156,0.614002911 5.51330422,0.701717613" id="path-13"></path>
    </defs>
    <g id="vr办公" stroke="none" stroke-width="1" fill="none" fill-rule="evenodd">
        <g id="编组" transform="translate(96.000000, 20.000000)">
            <g transform="translate(0.000000, 23.513566)">
                <g fill="#D5D9DD" id="Fill-1">
                    <path d="M129.855322,20.3120466 C113.562483,34.7293974 109.127199,47.6187715 87.8098486,89.6870102 C66.4924978,131.755249 21.7399214,110.00602 5.60778166,146.303837 C-10.5243581,182.600984 10.0671703,223.676239 42.9079563,256.930154 C75.7487424,290.184739 141.609092,295.395394 169.87733,285.162905 C199.47669,274.44899 245.919281,270.575482 276.811595,205.490504 C316.277185,122.342323 300.78717,79.6681164 257.812993,40.6779272 C221.832556,8.03332751 174.82618,-19.484984 129.855322,20.3120466"></path>
                </g>
                <path d="M130.188771,30.6345939 C130.188771,30.6345939 111.551071,51.1363988 100.98982,85.3049578 C86.1439389,133.335118 17.1205036,131.278175 23.9542154,184.085103 C30.7879272,236.891362 78.0032111,272.924026 120.870256,279.758408 C163.736632,286.592789 225.36391,261.077854 256.925132,223.845307 C283.666064,192.298815 294.071974,112.664579 278.91407,88.0134003 C251.461377,43.3672868 210.258233,14.3712169 183.010431,13.3916245 C161.575234,12.6202707 149.44784,11.9968937 130.188771,30.6345939" id="Fill-3" fill="#EAECEE"></path>
            </g>
            <g transform="translate(51.765648, 49.565968)" fill="#D5D9DD">
                <polygon id="Fill-5" points="116.66064 149.969578 117.354323 149.969578 117.354323 17.594032 116.66064 17.594032"></polygon>
                <path d="M35.4298632,80.3660873 L35.4298632,152.387892 L122.099354,149.633249 L122.099354,20.7174119 L117.040023,18.0056215 L35.4298632,80.3660873 Z M34.7355109,153.093627 L34.7355109,153.007921 L34.7355109,80.0225939 L34.8721048,79.9188093 L116.975074,17.1827103 L122.793706,20.3016041 L122.793706,150.305505 L34.7355109,153.093627 Z" id="Fill-7"></path>
                <polygon id="Fill-8" points="228.731907 98.4943726 228.610044 97.8107336 238.27607 96.085901 238.27607 93.0205735 207.586638 77.3698603 207.901339 76.7511703 238.969753 92.5940524 238.969753 96.6677642"></polygon>
                <polygon id="Fill-9" points="201.466897 74.2483552 122.289313 33.8708006 122.604015 33.2527802 201.66844 73.5171761"></polygon>
                <polygon id="Fill-10" points="238.473528 96.8237089 207.60331 82.1880757 207.901272 81.5600116 238.77216 96.1963144"></polygon>
                <polygon id="Fill-11" points="201.483234 79.0550539 122.296946 41.7448355 122.596247 41.1167715 201.781197 78.4276594"></polygon>
                <polygon id="Fill-12" points="238.96982 151.878544 238.276137 151.878544 238.276137 147.861077 207.762803 145.489432 207.817039 144.798428 238.96982 147.218282"></polygon>
                <polygon id="Fill-13" points="202.088064 145.000306 122.41968 138.859607 122.473916 138.167933 202.1423 144.308632"></polygon>
                <polygon id="Fill-14" points="238.610792 151.878544 207.776061 150.818603 207.800836 150.12492 238.634897 151.184192"></polygon>
                <polygon id="Fill-15" points="202.10246 150.624358 122.434745 147.886454 122.45885 147.192102 202.127234 149.930006"></polygon>
                <path d="M248.706151,153.916672 L249.793546,153.916672 L249.793546,87.6954207 L248.706151,87.1302969 L248.706151,153.916672 Z M250.487898,154.611025 L248.011799,154.611025 L248.011799,85.9873275 L250.487898,87.2735866 L250.487898,154.611025 Z" id="Fill-16"></path>
                <polygon id="Fill-17" points="189.791802 68.0328646 189.577537 67.3726608 204.394626 62.5778137 204.608891 63.2380175"></polygon>
                <polygon id="Fill-18" points="233.067156 90.2730946 232.913153 89.5961514 248.011464 85.9871266 248.166806 86.6640699"></polygon>
                <line x1="122.446865" y1="93.559182" x2="191.440169" y2="110.114495" id="Fill-19"></line>
                <polygon id="Fill-20" points="191.35915 110.452297 122.365176 93.896984 122.527884 93.2213799 191.521857 109.777362"></polygon>
                <line x1="122.446865" y1="97.2042969" x2="191.440169" y2="112.717747" id="Fill-21"></line>
                <polygon id="Fill-22" points="191.364373 113.057357 122.370399 97.5432373 122.523063 96.8649549 191.516367 112.379074"></polygon>
                <polygon id="Fill-23" points="232.134099 124.18621 207.541173 119.142279 207.680445 118.461988 231.440416 123.334507 231.440416 121.612352 207.540504 116.613953 207.681115 115.935001 232.134099 121.048568"></polygon>
                <line x1="207.748742" y1="89.0389287" x2="228.671042" y2="98.1525531" id="Fill-24"></line>
                <polygon id="Fill-25" points="228.533109 98.4708705 207.610809 89.357246 207.887345 88.721147 228.809645 97.8347715"></polygon>
                <line x1="122.446865" y1="51.8819098" x2="187.563983" y2="80.2465677" id="Fill-26"></line>
                <polygon id="Fill-27" points="187.42538 80.5645502 122.308262 52.2005619 122.584798 51.5637933 187.701916 79.9284512"></polygon>
                <path d="M108.328882,49.9565386 L108.328882,74.2126667 L112.379828,72.3358399 L112.379828,47.4871354 L108.328882,49.9565386 Z M107.635199,75.3000611 L107.635199,49.5675138 L113.073511,46.250425 L113.073511,72.7791004 L107.635199,75.3000611 Z" id="Fill-28"></path>
                <polygon id="Fill-29" points="112.524859 52.2219214 107.837144 50.0772635 108.127071 49.4465211 112.524859 51.4713246"></polygon>
                <path d="M101.559852,104.577488 L101.559852,120.382204 L108.415659,118.937255 L108.415659,102.489074 L101.559852,104.577488 Z M100.865499,121.237255 L100.865499,104.063252 L109.110012,101.552335 L109.110012,119.4997 L100.865499,121.237255 Z" id="Fill-30"></path>
                <polygon id="Fill-31" points="105.661686 105.673721 101.496242 104.892323 101.623461 104.210693 105.788905 104.991421"></polygon>
                <polygon id="Fill-32" points="105.378521 119.830338 105.226527 105.078198 108.763237 104.032317 108.763237 104.683147 105.926236 105.532172 106.072873 119.823642"></polygon>
                <polygon id="Fill-33" points="83.1040757 172.547744 83.7984279 172.547744 83.7984279 151.531703 83.1040757 151.531703"></polygon>
                <polygon id="Fill-34" points="119.351004 177.045968 120.045357 177.045968 120.045357 150.750306 119.351004 150.750306"></polygon>
                <polygon id="Fill-35" points="240.849927 166.544978 241.54361 166.544978 241.54361 154.099534 240.849927 154.099534"></polygon>
                <path d="M35.4298632,176.415895 L119.350737,193.630073 L119.350737,177.352635 L35.4298632,166.93802 L35.4298632,176.415895 Z M120.045089,194.481776 L34.7355109,176.982358 L34.7355109,166.152606 L35.1258748,166.200815 L120.045089,176.739971 L120.045089,194.481776 Z" id="Fill-36"></path>
                <path d="M134.364614,176.846099 L134.364614,190.707031 L198.932678,181.77754 L198.932678,171.751951 L134.364614,176.846099 Z M133.670262,191.503828 L133.670262,176.204643 L199.627031,171.000684 L199.627031,182.382169 L133.670262,191.503828 Z" id="Fill-37"></path>
                <path d="M213.686023,170.599875 L213.686023,179.900981 L246.143811,175.27018 L246.143811,168.220865 L213.686023,170.599875 Z M212.991671,180.700457 L212.991671,169.954402 L246.837493,167.473616 L246.837493,175.872131 L212.991671,180.700457 Z" id="Fill-38"></path>
                <polygon id="Fill-39" points="253.433036 174.420888 246.490853 174.420888 246.490853 173.726536 252.739354 173.726536 252.739354 166.545313 253.433036 166.545313"></polygon>
                <polygon id="Fill-40" points="208.769112 154.611092 249.250451 154.611092 249.250451 153.916739 208.769112 153.916739"></polygon>
                <path d="M196.271776,84.0896769 L196.271776,99.8508705 L200.090378,99.1163435 L200.090378,82.8161397 L196.271776,84.0896769 Z M195.577424,100.691191 L195.577424,83.5888326 L200.784731,81.8532868 L200.784731,99.6895022 L195.577424,100.691191 Z" id="Fill-41"></path>
                <path d="M238.96982,102.258137 L238.96982,113.539854 L241.558408,113.042358 L241.558408,101.395051 L238.96982,102.258137 Z M238.276137,114.380844 L238.276137,101.757293 L242.25276,100.432198 L242.25276,113.616186 L238.276137,114.380844 Z" id="Fill-42"></path>
                <polygon id="Fill-43" points="166.995421 141.947968 166.301738 141.947968 166.301738 116.690151 144.055683 120.701592 144.055683 140.165552 143.36133 140.165552 143.36133 120.121068 166.995421 115.859205"></polygon>
                <polygon id="Fill-44" points="220.047013 146.03641 219.352661 146.03641 219.352661 128.608638 207.654466 130.0643 207.567421 129.375304 220.047013 127.822553"></polygon>
                <polygon id="Fill-45" points="175.054527 117.082055 122.381514 106.985491 122.511412 106.303191 175.078632 116.379668 188.344978 114.77402 188.344978 112.087674 189.03933 112.087674 189.03933 115.390032"></polygon>
                <polygon id="Fill-46" points="188.618702 115.420833 122.533374 101.153467 122.679342 100.475854 188.765339 114.74255"></polygon>
                <path d="M217.878719,126.796492 L207.555167,125.145313 L207.666317,124.461004 L217.906841,126.107496 L226.930073,125.394396 L207.689083,121.621994 L207.822329,120.941033 L229.547453,125.200218 C229.718195,125.233697 229.83738,125.3877 229.828006,125.561121 C229.816623,125.733872 229.681368,125.873144 229.507948,125.886536 L217.878719,126.796492 Z" id="Fill-47"></path>
                <polygon id="Fill-48" points="229.133654 125.669258 229.828006 125.669258 229.828006 123.58687 229.133654 123.58687"></polygon>
                <polygon id="Fill-49" points="198.064705 99.5474847 197.370352 99.5474847 197.370352 85.0263493 195.792827 84.3768588 196.05664 83.7354032 198.064705 84.5616623"></polygon>
                <polygon id="Fill-50" points="197.817563 85.1263843 197.61669 84.4614934 200.337185 83.6372431 200.537389 84.3021339"></polygon>
                <polygon id="Fill-51" points="239.916536 113.492314 240.610888 113.492314 240.610888 102.787773 239.916536 102.787773"></polygon>
                <polygon id="Fill-52" points="240.212154 103.394277 238.441121 102.303534 238.804032 101.712297 240.315269 102.64301 241.941004 102.179662 242.130495 102.846562"></polygon>
                <path d="M221.265846,118.791287 L228.323866,120.252306 L228.323866,98.2426114 L221.265846,95.1873275 L221.265846,118.791287 Z M229.018218,121.105348 L220.571493,119.35641 L220.571493,94.1293945 L229.018218,97.7866288 L229.018218,121.105348 Z" id="Fill-53"></path>
                <path d="M173.709479,105.417741 L187.357485,108.669881 L187.124472,80.4344512 L173.89763,74.672064 L173.709479,105.417741 Z M188.059872,109.551045 L173.012448,105.965456 L173.208635,73.6154702 L187.815476,79.9771295 L187.816815,80.2034469 L188.059872,109.551045 Z" id="Fill-54"></path>
                <line x1="136.381182" y1="57.5615371" x2="136.381182" y2="96.5095429" id="Fill-55"></line>
                <polygon id="Fill-56" points="136.727755 96.7861456 136.034073 96.5096099 136.034073 57.5609345 136.727755 57.8843406"></polygon>
                <line x1="137.5889" y1="109.547362" x2="137.5889" y2="139.741977" id="Fill-57"></line>
                <polygon id="Fill-58" points="137.241456 139.741776 137.935808 139.741776 137.935808 109.547162 137.241456 109.547162"></polygon>
                <line x1="147.990256" y1="111.711706" x2="147.990256" y2="119.639508" id="Fill-59"></line>
                <polygon id="Fill-60" points="147.642678 119.639709 148.337031 119.639709 148.337031 111.711907 147.642678 111.711907"></polygon>
                <line x1="174.546451" y1="116.730929" x2="174.546451" y2="142.405223" id="Fill-61"></line>
                <polygon id="Fill-62" points="174.198806 142.405357 174.893159 142.405357 174.893159 116.731063 174.198806 116.731063"></polygon>
                <line x1="160.834501" y1="153.267048" x2="204.660381" y2="152.701924" id="Fill-63"></line>
                <polygon id="Fill-64" points="160.837782 153.614224 160.829747 152.919872 204.655627 152.354748 204.664332 153.0491"></polygon>
                <path d="M43.4141106,87.3250771 L43.4141106,100.909473 L44.71577,100.131424 L44.71577,86.4760524 L43.4141106,87.3250771 Z M42.7197584,102.134131 L42.7197584,86.949444 L45.4101223,85.1944803 L45.4101223,100.525135 L42.7197584,102.134131 Z" id="Fill-65"></path>
                <path d="M73.3548879,67.9726696 L73.3548879,99.3644891 L78.8226608,96.9767744 L78.8226608,64.4306026 L73.3548879,67.9726696 Z M72.6605357,100.424431 L72.6605357,67.5956972 L79.5163435,63.153048 L79.5163435,97.4314178 L72.6605357,100.424431 Z" id="Fill-66"></path>
                <path d="M52.1794876,117.410952 L52.1794876,131.324111 L73.6099971,127.206876 L73.2772169,110.033543 L52.1794876,117.410952 Z M51.4851354,132.1651 L51.4851354,116.918812 L73.952821,109.061316 L74.3150626,127.777357 L51.4851354,132.1651 Z" id="Fill-67"></path>
                <polygon id="Fill-68" points="160.833831 174.182183 160.139479 174.182183 160.139479 151.087773 122.986611 150.085415 123.00536 149.391063 160.833831 150.412838"></polygon>
                <polygon id="Fill-69" points="182.399796 172.549083 183.094148 172.549083 183.094148 153.267249 182.399796 153.267249"></polygon>
                <polygon id="Fill-70" points="186.869898 172.012751 187.563581 172.012751 187.563581 153.267249 186.869898 153.267249"></polygon>
                <polygon id="Fill-71" points="189.212751 172.012751 189.907103 172.012751 189.907103 152.984687 189.212751 152.984687"></polygon>
                <polygon id="Fill-72" points="223.348501 169.424833 224.042853 169.424833 224.042853 154.263581 223.348501 154.263581"></polygon>
                <polygon id="Fill-73" points="227.398108 168.867744 228.09246 168.867744 228.09246 154.547482 227.398108 154.547482"></polygon>
                <polygon id="Fill-74" points="229.133654 168.990946 229.828006 168.990946 229.828006 154.539447 229.133654 154.539447"></polygon>
                <polygon id="Fill-75" points="223.547901 166.516052 208.768978 166.100914 208.768978 154.019051 209.46333 154.019051 209.46333 165.427319 223.566649 165.8217"></polygon>
                <polygon id="Fill-76" points="253.359852 167.260824 229.821511 166.892556 229.834233 166.198204 253.373913 166.566472"></polygon>
                <polygon id="Fill-77" points="119.92423 181.587447 119.878699 180.894434 133.763735 179.954346 133.809936 180.64736"></polygon>
                <polygon id="Fill-78" points="119.915057 186.474562 119.842073 185.784227 133.980879 184.338608 134.053863 185.028274"></polygon>
                <polygon id="Fill-79" points="119.947063 191.680463 119.854661 190.992806 133.971371 189.08384 134.063773 189.770827"></polygon>
                <polygon id="Fill-80" points="199.095252 173.871298 199.041016 173.178285 213.399444 172.104282 213.45301 172.797295"></polygon>
                <polygon id="Fill-81" points="199.13844 177.448384 199.068134 176.758049 213.090434 175.31377 213.160739 176.003435"></polygon>
                <polygon id="Fill-82" points="199.018116 181.272946 198.931071 180.583951 213.17701 178.793499 213.264055 179.482495"></polygon>
                <polygon id="Fill-83" points="187.608443 83.1248151 187.535459 82.4344803 201.171412 78.3882213 201.014731 73.8176827 201.709753 73.5170422 201.887191 79.0095895"></polygon>
                <polygon id="Fill-84" points="55.3661426 169.105444 56.0604949 169.105444 56.0604949 152.088122 55.3661426 152.088122"></polygon>
                <path d="M205.007691,152.354547 L207.263499,152.354547 L207.263499,65.1185939 L205.007691,63.7914905 L205.007691,152.354547 Z M207.957852,153.0489 L204.313339,153.0489 L204.313339,62.5775459 L207.957852,64.7215342 L207.957852,153.0489 Z" id="Fill-85"></path>
                <polygon id="Fill-86" points="201.768006 150.624425 202.462358 150.624425 202.462358 144.244687 201.768006 144.244687"></polygon>
                <polygon id="Fill-87" points="190.916157 112.718282 191.610509 112.718282 191.610509 109.957613 190.916157 109.957613"></polygon>
                <polygon id="Fill-88" points="217.504425 128.215662 218.198777 128.215662 218.198777 126.450655 217.504425 126.450655"></polygon>
                <polygon id="Fill-89" points="1.08065211 105.812658 0.871743814 105.534783 53.7242038 65.9252344 53.9324425 66.2037787"></polygon>
                <polygon id="Fill-90" points="0.982291121 154.273022 0.970238719 153.925511 75.0844745 151.35768 75.0965269 151.705191"></polygon>
                <polygon id="Fill-91" points="64.9968821 170.78267 0.953097525 162.212073 0.999298399 161.86791 65.043083 170.437837"></polygon>
                <polygon id="Fill-92" points="52.6492635 180.124687 0.945129549 170.781397 1.00740029 170.439243 52.7115342 179.783202"></polygon>
                <polygon id="Fill-93" points="34.9520524 96.5098108 35.2995633 96.5098108 35.2995633 62.5776128 34.9520524 62.5776128"></polygon>
                <polygon id="Fill-94" points="116.833392 34.5604658 117.180902 34.5604658 117.180902 0.628267831 116.833392 0.628267831"></polygon>
                <polygon id="Fill-95" points="250.048588 111.256594 250.396099 111.256594 250.396099 77.3243959 250.048588 77.3243959"></polygon>
                <polygon id="Fill-96" points="207.575255 88.7206114 207.922766 88.7206114 207.922766 54.7884134 207.575255 54.7884134"></polygon>
            </g>
            <g transform="translate(145.298399, 55.036128)">
                <path d="M8.68161281,51.9302096 C8.68161281,51.9302096 10.5001863,57.3979825 9.90560116,60.2383319 C9.31034643,63.0780116 3.25535371,89.8008646 2.6989345,90.8246492 C2.14251528,91.8484338 11.3967511,93.2739651 14.2571878,91.592655 C17.118294,89.9120146 14.4219039,81.485377 15.9987598,72.4608064 C18.5947132,57.5988559 18.0155284,55.2667162 18.0155284,55.2667162 L8.68161281,51.9302096 Z" id="Fill-97" fill="#FCCCBF"></path>
                <path d="M98.0415342,139.461514 C98.0415342,139.461514 100.76069,149.617001 103.439001,156.09048 C106.117313,162.56329 102.728579,164.592111 106.076469,171.06492 C109.424358,177.53706 110.763514,208.728675 112.10267,233.503057 C113.441825,258.277438 108.75478,262.294905 112.10267,281.712664 C115.450559,301.130422 111.391578,298.959651 111.416352,313.628763 C111.4351,325.367132 103.09283,326.797351 103.09283,326.797351 C103.09283,326.797351 96.9380699,327.225211 94.7773421,319.292722 C92.6159447,311.358894 90.0065997,268.321106 87.9978661,254.259971 C85.9891325,240.198836 82.7644454,212.077234 79.5765852,207.390189 C76.3887249,202.703144 73.4486084,226.75706 69.751869,238.809461 C66.0551295,250.861863 67.240952,271.357642 67.240952,288.252431 C67.240952,305.147889 71.4258137,316.586288 62.3865124,323.282067 C59.6211557,325.330306 56.6589432,325.147511 53.402786,324.447132 C50.6494818,323.854556 45.0330626,316.865502 45.0330626,311.39706 C45.0330626,294.2331 44.5804279,278.210771 41.3972547,253.143785 C38.9285211,233.698574 63.4417671,151.814556 65.0065706,147.127511 C66.5713741,142.440466 98.0415342,139.461514 98.0415342,139.461514" id="Fill-99" fill="#1C3C50"></path>
                <path d="M109.870297,130.610833 C107.876294,131.956684 105.789889,132.951007 103.913063,133.753831 C103.781156,126.778169 102.820981,118.52763 103.09283,113.424777 C103.708841,101.866524 102.987706,101.03223 105.74101,106.28306 C110.00823,114.418431 113.728405,120.81223 115.359496,125.156451 C114.614256,126.044981 111.479293,129.524777 109.870297,130.610833 M132.189336,110.523496 C128.911083,102.651269 131.519758,104.274326 121.141301,86.0792169 C114.088638,73.7141223 113.315945,72.095083 106.989773,68.6675138 C95.4194672,62.3989258 81.3014178,64.322623 76.3914032,64.043409 C73.324067,63.8679796 69.2543726,63.9121718 64.9985357,65.0176448 L65.0065706,64.8395371 C65.0065706,64.8395371 49.2701514,69.120818 40.0319854,75.775083 C30.2722183,82.8056507 19.031345,85.0795371 18.9222038,82.9710364 C18.7159738,78.9676303 19.031345,73.1007889 18.5291616,73.6190422 C18.0269782,74.1379651 1.9109083,74.3053595 1.9109083,74.3053595 C1.9109083,74.3053595 -0.272585153,86.6684454 0.282494905,94.8948792 C0.998273654,105.496306 2.17940902,107.415316 18.0705007,105.613482 C30.6732955,104.183933 45.492393,96.0592751 52.0221164,93.9393916 C52.5564396,98.2146463 53.0184483,104.877616 54.9849985,115.374588 C57.6847365,127.190629 58.4647948,140.775694 53.402786,159.402681 C47.822524,179.936626 83.6750713,156.036044 98.4874731,160.518868 C109.123048,163.737528 106.182932,158.657441 104.470821,149.888649 C105.375421,149.56993 106.489598,149.229115 107.861563,148.912405 C113.664795,147.573249 124.201272,144.508591 129.734664,140.257441 C135.14954,136.096684 137.8466,135.647397 137.575421,129.669406 C137.898157,126.306116 136.157255,120.049581 132.189336,110.523496" id="Fill-102" fill="#FDCB00"></path>
                <path d="M15.2073857,30.1424134 C16.0945764,32.4892838 15.2904134,36.376853 15.9091033,40.0930102 C16.5284629,43.8091674 16.7748675,46.9113217 18.1635721,48.5357176 C18.7253479,49.1932431 20.5727132,49.4684396 22.4676186,47.4744367 C24.3618544,45.4804338 28.0652897,44.6079738 26.8546929,46.2122824 C25.7050277,47.7342329 24.9932664,46.8704774 23.8201659,50.1192693 C22.7073275,53.2026754 20.0229898,56.4969985 18.0805444,58.7199971 C16.138099,60.9436652 9.02115575,58.4956885 8.17815721,56.6456448 C7.33515866,54.7949316 5.46569723,49.6211033 5.14229112,47.640492 C4.81888501,45.6598806 5.45833188,42.6996769 6.34217467,41.914262 C7.02246579,41.3096332 7.61169432,41.9216274 8.20895779,41.079968 C9.16913246,39.7267511 8.69306259,39.1515837 10.4393217,39.0390946 C12.1849112,38.9272751 12.1092489,39.0578428 12.8210102,38.0112926 C13.5321019,36.9647424 13.6010684,34.7270131 13.6727132,32.769837 C13.7764978,29.9221223 14.6730626,28.7296041 15.2073857,30.1424134" id="Fill-104" fill="#FF822D"></path>
                <path d="M92.098361,20.7444862 C94.9172838,24.9882707 95.4094236,30.9622445 92.3963231,40.8947627 C89.8813886,49.1821281 83.1146346,55.2518515 75.762,55.6161019 C71.5075022,55.8263493 67.5750713,55.0603523 66.2359156,45.686262 C64.8967598,36.3121718 63.1116652,21.1348501 70.2533828,17.5639913 C77.39577,13.9931325 89.282786,16.5047191 92.098361,20.7444862" id="Fill-106" fill="#FCCCBF"></path>
                <path d="M99.3231063,142.524297 C98.6059884,140.684297 98.1319272,139.051197 97.9739068,139.12485 C96.9528006,139.602259 95.9752169,140.064937 95.0605735,140.50418 C90.2717525,142.529654 90.1445328,143.098125 85.796294,142.933409 C80.3211557,142.72584 80.7155371,146.537747 76.7985066,148.423278 C73.6976914,149.916437 74.4697147,151.414952 77.7613595,150.18092 C80.538099,149.140396 81.0831354,148.557194 83.8176914,148.502958 C81.4346638,150.604763 77.5189723,152.807004 74.0760029,151.919814 C69.3032518,150.68913 72.7763523,156.470265 75.1955371,158.765578 C76.1972256,159.716378 77.1105298,159.372215 78.487182,159.95207 C80.5059592,160.802434 82.5963814,161.012012 85.0155662,161.235651 C86.4344017,161.366218 87.0758574,159.234282 88.1960611,157.720367 C90.8556245,154.124064 93.9443872,149.402201 94.2570801,148.954253 C95.2574294,147.520017 97.399409,146.553817 100.190879,145.705461 C100.44331,145.62913 99.9645619,144.170119 99.3231063,142.524297" id="Fill-108" fill="#FCCCBF"></path>
                <path d="M67.876501,0.448978166 C77.9335948,-2.51068469 87.4146638,12.1969898 93.4268035,15.6392897 C97.5159156,17.9808035 95.4615359,24.5243365 95.4615359,24.5243365 C95.4615359,24.5243365 95.1263601,31.7461688 94.4443405,31.1246921 C93.6236005,30.3768093 93.830416,26.5439457 92.2134621,23.6542038 C90.5179626,20.6240892 86.9680359,18.5438486 84.8026405,18.2888093 C75.1218836,17.1498574 74.5192635,19.8777176 72.3464833,18.6517205 C69.0822911,16.8103814 67.3925659,20.1886638 67.2459284,20.1679069 C67.2459284,20.1679069 53.7711461,4.599988 67.876501,0.448978166 Z" id="Fill-110" fill="#1C3C50"></path>
            </g>
            <g transform="translate(226.986900, 73.062329)">
                <mask id="mask-2" fill="white">
                    <use xlink:href="#path-1"></use>
                </mask>
                <g id="Clip-113"></g>
                <path d="M0.555749636,0.0281222707 C0.555749636,0.0281222707 7.96797671,2.41583697 5.97464338,6.73528384 L5.97464338,6.73528384 C5.3050655,8.18692868 8.38110626,10.9315284 7.23010189,13.9613683 L7.23010189,13.9613683 C6.70247453,15.3487336 6.4855313,18.1870742 7.31379913,17.7002911 L7.31379913,17.7002911 C8.29272198,17.1237846 7.7322853,13.159214 10.9121106,13.7176419 L10.9121106,13.7176419 C13.6928675,14.2050946 9.0486754,27.2645415 9.0486754,27.2645415 L9.0486754,27.2645415 C9.0486754,27.2645415 12.638952,22.2065502 13.5643086,17.2811354 L13.5643086,17.2811354 C15.2650364,8.24183406 13.0052111,1.54672489 10.1949927,0.454643377 L10.1949927,0.454643377 C9.17254731,0.0575836972 2.98430859,0.026783115 1.09944687,0.026783115 L1.09944687,0.026783115 C0.755953421,0.026783115 0.555749636,0.0281222707 0.555749636,0.0281222707" id="Fill-112" mask="url(#mask-2)"></path>
            </g>
            <g transform="translate(28.000000, 0.078341)">
                <path d="M203.287665,116.958682 C203.35864,121.969134 205.296399,117.605127 205.296399,119.001197 C205.296399,120.396597 198.60062,123.967456 193.020358,123.520847 C187.440766,123.074908 189.000882,119.05878 189.449499,119.001197 C189.748577,118.962361 191.062391,116.137899 193.390941,110.527811 C194.746326,110.278604 196.408203,109.836593 198.376571,109.201777 C200.845633,108.405483 204.00751,105.388063 204.00751,105.388063 C204.00751,105.388063 203.21602,111.948231 203.287665,116.958682 Z" id="Fill-155" fill="#EDBEB1"></path>
                <path d="M212.357566,91.1833159 C212.037508,93.4223843 210.503505,95.0561543 208.932675,94.8311761 C207.360507,94.606198 206.345426,92.6088472 206.666154,90.3697787 C206.986882,88.1300408 208.520215,86.4969403 210.091715,86.7219185 C211.663214,86.9462271 212.678294,88.9442475 212.357566,91.1833159" id="Fill-114" fill="#4E6574"></path>
                <path d="M212.709965,91.121179 C212.439456,93.0180932 211.139805,94.401441 209.808684,94.2112809 C208.476894,94.0211208 207.617825,92.3290975 207.889004,90.4321834 C208.159514,88.5345997 209.459164,87.1512518 210.790285,87.3414119 C212.121406,87.5322416 212.981144,89.2242649 212.709965,91.121179" id="Fill-116" fill="#4E6574"></path>
                <path d="M213.358652,91.0325939 C213.358652,91.471837 213.003106,91.8273828 212.563863,91.8273828 C212.12462,91.8273828 211.768405,91.471837 211.768405,91.0325939 C211.768405,90.5933508 212.12462,90.2378049 212.563863,90.2378049 C213.003106,90.2378049 213.358652,90.5933508 213.358652,91.0325939" id="Fill-118" fill="#4E6574"></path>
                <path d="M212.968288,91.241837 C212.968288,91.241837 215.977371,73.2784017 208.93609,68.6435837 C207.97725,68.0126093 206.960853,67.516011 205.922242,67.1314464" id="Stroke-120" stroke="#4E6574"></path>
                <path d="M215.91664,381.24492 C216.430876,385.889782 217.271197,391.709083 216.67929,392.653857 C215.674923,394.254148 216.569479,392.580204 215.954806,396.93246 C215.340134,401.284716 213.666189,402.623872 215.005345,404.297817 C216.344501,405.971761 224.714224,410.994265 226.05338,405.804367 C227.392536,400.615138 223.353642,395.895953 224.044646,391.749258 C224.630527,388.227948 224.966655,390.90559 224.212041,387.223581 C223.793555,385.182038 223.914079,382.305531 224.254224,380.168908 C224.337252,379.648646 223.604734,381.155197 219.943482,381.811383 C217.716466,382.209112 215.90124,381.106987 215.91664,381.24492" id="Fill-122" fill="#FCCCBF"></path>
                <path d="M169.877939,381.005613 C170.437706,384.294579 169.790894,388.599965 170.031272,389.79784 C170.477881,392.022178 160.579511,399.307185 160.579511,399.307185 C160.579511,399.307185 168.692116,402.574725 172.709584,399.307185 C176.727051,396.039645 176.727051,394.22241 179.405362,395.577636 C182.083674,396.932192 184.315377,393.93784 184.315377,393.93784 C184.315377,393.93784 181.971854,388.11586 180.744518,383.987243 C180.340763,382.62733 180.252378,380.952047 180.199482,379.318277 C180.194795,379.189048 178.45724,380.611231 174.244256,381.280809 C172.01724,381.634346 169.861199,380.904507 169.877939,381.005613" id="Fill-124" fill="#FCCCBF"></path>
                <path d="M216.909223,392.970367 C216.884448,392.599421 216.364186,392.53715 216.258393,392.894035 C215.751523,394.61485 215.040431,396.959042 214.498742,398.494384 C213.553968,401.172696 214.052134,404.634413 213.776937,407.310716 C213.501741,409.987019 212.269718,413.104574 214.133822,417.019595 C216.790038,422.599188 226.945525,418.80536 227.615103,415.45747 C228.284681,412.109581 225.8434,396.89945 225.829339,396.318256 C225.826661,396.191036 225.467098,393.458489 224.379033,392.788911 C223.921042,392.507689 223.65522,394.593424 223.710125,393.828096 C223.793153,392.6637 224.00407,392.04501 221.979266,391.938547 C220.176093,391.842798 219.211231,391.487921 217.871406,392.349668 C217.070591,392.865243 217.400693,393.134413 217.571435,393.937907 C217.739499,394.728009 216.972833,393.905098 216.909223,392.970367" id="Fill-126" fill="#1C3C50"></path>
                <path d="M182.310259,390.778571 C182.310259,390.778571 185.097042,388.283054 186.659167,393.938309 C187.753927,397.899531 187.981584,403.94448 187.370929,405.218017 C186.617654,406.789517 181.224873,407.852806 171.666649,408.977028 C162.108425,410.100579 146.721525,409.868905 144.712792,409.206693 C142.704058,408.54515 140.737508,406.891962 141.853694,404.715834 C142.969211,402.539036 151.841118,402.574524 156.082224,399.306984 C160.322661,396.039444 166.310696,389.717959 168.134626,387.362384 C169.03186,386.204015 170.065019,387.334932 171.666649,388.450448 C173.26761,389.566635 173.937188,390.830128 174.160827,392.654058 C174.383796,394.476649 180.901467,390.860259 182.310259,390.778571" id="Fill-128" fill="#1C3C50"></path>
                <path d="M171.091549,376.789348 C170.592044,376.73846 166.571898,375.335025 165.477138,376.11977 C163.635799,377.439508 166.845755,378.200148 165.872189,380.675578 C164.897953,383.150338 167.145057,384.610017 170.374431,383.963875 C173.602466,383.317732 177.004591,379.298926 179.503456,380.675578 C182.001651,382.050891 183.36759,383.317732 184.594926,381.308999 C185.822262,379.300265 183.982932,377.854646 183.675595,375.930279 C183.143951,372.604486 173.853557,377.069231 171.091549,376.789348" id="Fill-130" fill="#1C3C50"></path>
                <path d="M213.123229,378.184079 C212.953825,378.634705 213.331467,379.411415 213.666256,381.420148 C214.001045,383.428882 212.604975,384.413162 214.499211,384.879857 C216.392777,385.345884 221.814349,386.828329 224.392894,384.861109 C227.731409,382.313365 225.062472,382.867106 225.262006,381.269493 C225.495019,379.404719 227.615572,379.216568 226.327304,377.514501 C224.934582,375.674501 220.250215,379.655811 218.353301,379.310978 C216.455718,378.965476 213.584568,376.956742 213.123229,378.184079" id="Fill-132" fill="#1C3C50"></path>
                <path d="M201.726076,80.9925415 C201.726076,80.9925415 204.228958,80.9737933 205.296265,82.4535604 C205.935042,83.3394119 206.97021,84.462294 206.340806,87.8101834 C205.857371,90.3833712 206.272509,93.571901 204.863718,95.8524833 C203.454926,98.1330655 199.772247,96.5575488 196.479933,95.6067482 C193.187619,94.6559476 191.960282,93.838393 189.839729,93.8926288 C187.719846,93.9468646 183.956148,96.6017409 182.85938,96.2080291 C180.354489,95.308786 180.819846,82.3102707 182.661185,81.3059039 C184.502524,80.3015371 201.726076,80.9925415 201.726076,80.9925415" id="Fill-134" fill="#AAB3BB"></path>
                <path d="M184.180323,81.0778457 L201.472172,81.0778457 C202.593715,81.0778457 203.673074,81.5780204 204.342652,82.4765939 C205.177616,83.5981368 205.997179,85.3631441 205.505039,87.6618049 C204.611822,91.831936 205.058431,95.5922853 201.037616,95.499214 C197.016131,95.4061426 194.186495,92.6856477 189.867718,93.023115 C185.54894,93.3605822 183.911153,96.18754 181.975403,95.499214 C180.038984,94.8102183 179.741022,86.9172344 179.890338,85.7260553 C179.960643,85.1616012 180.432026,84.0889374 180.908766,83.1160408 C181.52076,81.8679476 182.790279,81.0778457 184.180323,81.0778457" id="Fill-136" fill="#1C3C50"></path>
                <polygon id="Fill-138" fill="#1C3C50" points="180.523156 95.2282358 182.422079 95.5985124 182.756868 95.01531"></polygon>
                <polygon id="Fill-140" fill="#1C3C50" points="200.273761 80.7953508 202.365523 81.1857147 203.177721 81.8164571 200.618594 81.5559913"></polygon>
                <path d="M182.645718,80.7800175 L199.937566,80.7800175 C201.059109,80.7800175 202.067493,81.3377758 202.808047,82.1787656 C203.761525,83.2628122 204.462574,85.0653159 203.970434,87.3639767 C203.077217,91.5341077 203.523825,95.2944571 199.50301,95.2013857 C195.481525,95.1083144 192.651889,92.3878195 188.333112,92.7252868 C184.014335,93.062754 182.376547,95.8897118 180.440798,95.2013857 C178.504378,94.5123901 178.206416,86.6194061 178.355732,85.4282271 C178.426038,84.8637729 178.519779,84.1299156 178.997188,83.1570189 C179.608512,81.9089258 181.255674,80.7800175 182.645718,80.7800175" id="Fill-142" fill="#4E6574"></path>
                <path d="M205.474105,84.8464978 C205.474105,84.8464978 210.830728,85.5783464 211.89067,85.5783464 L213.284731,85.5783464 C213.284731,85.5783464 213.63492,85.5696419 213.732009,85.7457409 C214.021936,86.2693508 213.979753,87.0956099 213.375793,87.3078661 C213.076492,87.4129898 205.610029,86.7012285 205.610029,86.7012285 C205.610029,86.7012285 205.647525,86.4481281 205.650873,85.8508646 C205.654221,85.3901951 205.474105,84.8464978 205.474105,84.8464978" id="Fill-144" fill="#4E6574"></path>
                <path d="M190.428891,82.4163319 C190.228017,82.3795051 190.286271,82.0627948 190.489822,82.0627948 C193.062341,82.0634643 199.458148,82.0627948 199.901409,82.0654731 C200.319895,82.0674818 201.335645,81.9817758 202.020623,82.8187482 C202.447814,83.3403493 202.565659,84.4819796 202.594451,85.2660553 C202.610521,85.7260553 202.242923,86.1036972 201.782923,86.1077147 C200.69352,86.1177584 201.166242,84.8475691 198.7263,83.9463173 C195.36368,82.7049199 193.138672,82.9171761 190.428891,82.4163319" id="Fill-146" fill="#AAB3BB"></path>
                <path d="M179.741156,89.8700058 C179.662146,89.7280553 179.428463,89.8693362 179.434489,90.0313741 C179.472655,91.0484629 179.668172,93.7133828 180.680574,94.0796419 C181.6374,94.4258137 184.003019,93.2205735 185.075013,92.6273275 C185.241738,92.5349258 185.188172,92.2396419 185.00002,92.2670946 C183.759293,92.4498894 181.804795,93.1114323 180.942378,92.2537031 C180.457604,91.771607 180.116119,90.5482882 179.741156,89.8700058" id="Fill-148" fill="#AAB3BB"></path>
                <path d="M209.945345,88.3035953 C208.846568,89.3307278 208.425403,90.854687 208.825811,92.3016448 C208.96977,92.8205677 209.777281,92.6002766 209.633322,92.079345 C209.308576,90.905575 209.649392,89.7257787 210.537252,88.8955022 C210.931633,88.5265648 210.338387,87.9359971 209.945345,88.3035953" id="Fill-150" fill="#AAB3BB"></path>
                <path d="M212.915994,90.7798952 C212.915994,90.9191674 212.802836,91.0323261 212.662894,91.0323261 C212.523622,91.0323261 212.410463,90.9191674 212.410463,90.7798952 C212.410463,90.640623 212.523622,90.5274643 212.662894,90.5274643 C212.802836,90.5274643 212.915994,90.640623 212.915994,90.7798952" id="Fill-152" fill="#AAB3BB"></path>
                <path d="M206.85444,197.047863 L208.103202,196.423147 C208.316798,196.316684 208.572576,196.376277 208.714527,196.566437 C209.277642,197.321721 210.625502,199.159712 210.757409,199.643817 C210.924803,200.25782 211.92917,200.536364 212.207715,201.094792 C212.486929,201.65255 212.877293,203.38207 213.044687,204.051648 C213.212082,204.721226 213.210073,204.842419 213.093566,205.139042 C212.989782,205.404195 211.816681,206.167514 211.370742,205.949231 C210.925473,205.730949 210.701164,205.614443 210.366376,205.00044 C210.031587,204.386437 209.139039,202.210309 209.02722,201.987339 C208.91607,201.76437 209.194614,201.150367 208.748675,200.648183 C208.415226,200.27322 207.243464,198.593918 206.670306,197.764981 C206.500233,197.519916 206.587278,197.181109 206.85444,197.047863" id="Fill-157" fill="#1C3C50"></path>
                <path d="M212.201956,205.578821 L212.198608,205.579491 C211.643528,205.763624 211.0389,205.458297 210.854766,204.901208 L210.195901,202.898501 C210.012437,202.341412 210.317764,201.734774 210.873514,201.55064 L210.876192,201.549971 C211.431942,201.365837 212.035901,201.671164 212.219365,202.228923 L212.8789,204.230961 C213.061694,204.788049 212.757036,205.394687 212.201956,205.578821" id="Fill-159" fill="#0D2330"></path>
                <path d="M51.9096332,4.1503115 C30.3398515,13.7025095 47.5667511,33.5360757 16.0329811,59.2974148 C-15.5007889,85.0594236 15.9613362,118.304635 48.7746696,121.7697 C81.5880029,125.234096 96.8496914,106.262946 130.063432,116.082975 C163.277173,125.903674 188.008702,70.1345328 162.352486,49.7023639 C144.210274,35.2542125 145.461045,51.8088559 119.56713,25.3538341 C105.606431,11.0904862 77.6140582,-7.23251237 51.9096332,4.1503115" id="Fill-161" fill="#7C8C98"></path>
                <polygon id="Fill-163" fill="#FFFFFF" points="84.9644833 85.7086463 85.2992722 85.7086463 85.2992722 21.8757787 84.9644833 21.8757787"></polygon>
                <path d="M45.7945124,52.1451179 L45.7945124,86.8747831 L87.5875546,85.5463406 L87.5875546,23.3813916 L85.1476128,22.0743755 L45.7945124,52.1451179 Z M45.4597234,87.2149287 L45.4597234,87.1740844 L45.4597234,51.9797322 L45.5260116,51.9295138 L85.1168122,21.6773159 L87.9223435,23.1818574 L87.9223435,85.8710859 L45.4597234,87.2149287 Z" id="Fill-165" fill="#FFFFFF"></path>
                <polygon id="Fill-166" fill="#FFFFFF" points="139.007386 60.8868588 138.948463 60.5574265 143.609394 59.7258108 143.609394 58.2473828 128.810384 50.7005706 128.962378 50.4019389 143.944183 58.0418224 143.944183 60.0063639"></polygon>
                <polygon id="Fill-167" fill="#FFFFFF" points="125.859086 49.1950917 87.6790859 29.7244367 87.8310801 29.4264745 125.956844 48.8422242"></polygon>
                <polygon id="Fill-168" fill="#FFFFFF" points="143.704876 60.0812897 128.818821 53.0232693 128.962111 52.7206201 143.848836 59.7786405"></polygon>
                <polygon id="Fill-169" fill="#FFFFFF" points="125.86692 51.5131033 87.6829025 33.5215459 87.8268617 33.2188967 126.010879 51.2104541"></polygon>
                <polygon id="Fill-170" fill="#FFFFFF" points="143.94425 86.6293159 143.609461 86.6293159 143.609461 84.6915575 128.895488 83.5485881 128.921601 83.2151383 143.94425 84.3822125"></polygon>
                <polygon id="Fill-171" fill="#FFFFFF" points="126.158521 83.3124949 87.7414905 80.3516215 87.7682737 80.0181718 126.184635 82.9790451"></polygon>
                <polygon id="Fill-172" fill="#FFFFFF" points="143.770294 86.6293159 128.902317 86.1184279 128.9137 85.783639 143.782346 86.2945269"></polygon>
                <polygon id="Fill-173" fill="#FFFFFF" points="126.166422 86.0244862 87.7493916 84.7040786 87.7607744 84.3692897 126.178475 85.6896972"></polygon>
                <path d="M148.63913,87.6121223 L149.163409,87.6121223 L149.163409,55.6792838 L148.63913,55.4067656 L148.63913,87.6121223 Z M149.498198,87.9469112 L148.304341,87.9469112 L148.304341,54.8557031 L149.498198,55.4757322 L149.498198,87.9469112 Z" id="Fill-174" fill="#FFFFFF"></path>
                <polygon id="Fill-175" fill="#FFFFFF" points="120.229476 46.1979942 120.126361 45.8792751 127.271426 43.5672227 127.374541 43.8859418"></polygon>
                <polygon id="Fill-176" fill="#FFFFFF" points="141.097205 56.9223552 141.022882 56.5962707 148.304541 54.8560378 148.378865 55.1821223"></polygon>
                <line x1="87.7549491" y1="58.5070451" x2="121.024934" y2="66.4904221" id="Fill-177" fill="#FFFFFF"></line>
                <polygon id="Fill-178" fill="#FFFFFF" points="120.985362 66.6531295 87.715377 58.6697525 87.7943872 58.3443377 121.063703 66.3277147"></polygon>
                <line x1="87.7549491" y1="60.264687" x2="121.024934" y2="67.7458806" id="Fill-179" fill="#FFFFFF"></line>
                <polygon id="Fill-180" fill="#FFFFFF" points="120.987974 67.9092576 87.7179884 60.428064 87.7916419 60.10131 121.060958 67.5825036"></polygon>
                <polygon id="Fill-181" fill="#FFFFFF" points="140.647316 73.2757234 128.788422 70.8438166 128.85538 70.5150539 140.312527 72.8652722 140.312527 72.0343261 128.788422 69.6245153 128.856719 69.2970917 140.647316 71.7624774"></polygon>
                <line x1="128.888524" y1="56.3273683" x2="138.977723" y2="60.7218079" id="Fill-182" fill="#FFFFFF"></line>
                <polygon id="Fill-183" fill="#FFFFFF" points="138.910632 60.875409 128.822771 56.4809694 128.956017 56.1743028 139.043878 60.5687424"></polygon>
                <line x1="87.7549491" y1="38.409933" x2="119.155473" y2="52.0874003" id="Fill-184" fill="#FFFFFF"></line>
                <polygon id="Fill-185" fill="#FFFFFF" points="119.088448 52.2408675 87.6879243 38.5634003 87.8218399 38.2567336 119.221694 51.9342009"></polygon>
                <path d="M80.9473508,37.4814294 L80.9473508,49.1776157 L82.9005095,48.273016 L82.9005095,36.2909199 L80.9473508,37.4814294 Z M80.6125619,49.7018952 L80.6125619,37.2939476 L83.2352984,35.6943261 L83.2352984,48.4866114 L80.6125619,49.7018952 Z" id="Fill-186" fill="#FFFFFF"></path>
                <polygon id="Fill-187" fill="#FFFFFF" points="82.9704134 38.5737118 80.7099185 37.5398836 80.8498603 37.2352256 82.9704134 38.2114702"></polygon>
                <path d="M77.6831587,63.8202125 L77.6831587,71.4413479 L80.9888646,70.7443173 L80.9888646,62.8131674 L77.6831587,63.8202125 Z M77.3483697,71.8538079 L77.3483697,63.5724687 L81.3236536,62.3612023 L81.3236536,71.0161659 L77.3483697,71.8538079 Z" id="Fill-188" fill="#FFFFFF"></path>
                <polygon id="Fill-189" fill="#FFFFFF" points="79.6611587 64.3488443 77.652425 63.9725415 77.7140262 63.6431092 79.7227598 64.0200815"></polygon>
                <polygon id="Fill-190" fill="#FFFFFF" points="79.5244978 71.1754585 79.4515138 64.0611936 81.1569287 63.557671 81.1569287 63.8710335 79.7889811 64.2808151 79.8592868 71.1721106"></polygon>
                <polygon id="Fill-191" fill="#FFFFFF" points="68.7834643 96.5959825 69.1182533 96.5959825 69.1182533 86.4619214 68.7834643 86.4619214"></polygon>
                <polygon id="Fill-192" fill="#FFFFFF" points="86.2621252 98.7654148 86.5969141 98.7654148 86.5969141 86.0856186 86.2621252 86.0856186"></polygon>
                <polygon id="Fill-193" fill="#FFFFFF" points="144.850189 93.702067 145.184978 93.702067 145.184978 87.7006405 144.850189 87.7006405"></polygon>
                <path d="M45.7945124,98.4613595 L86.2617904,106.762116 L86.2617904,98.9133246 L45.7945124,93.890821 L45.7945124,98.4613595 Z M86.5965793,107.173237 L45.4597234,98.7345473 L45.4597234,93.5125095 L45.6478748,93.5359447 L86.5965793,98.6173712 L86.5965793,107.173237 Z" id="Fill-194" fill="#FFFFFF"></path>
                <path d="M93.501936,98.6689956 L93.501936,105.352722 L124.637307,101.046667 L124.637307,96.2123144 L93.501936,98.6689956 Z M93.167147,105.73706 L93.167147,98.3596507 L124.972096,95.8500728 L124.972096,101.338603 L93.167147,105.73706 Z" id="Fill-195" fill="#FFFFFF"></path>
                <path d="M131.751907,95.6568996 L131.751907,100.141732 L147.40329,97.90869 L147.40329,94.5099127 L131.751907,95.6568996 Z M131.417118,100.527409 L131.417118,95.3455459 L147.738079,94.1496798 L147.738079,98.1992868 L131.417118,100.527409 Z" id="Fill-196" fill="#FFFFFF"></path>
                <polygon id="Fill-197" fill="#FFFFFF" points="150.918574 97.4995109 147.570684 97.4995109 147.570684 97.164722 150.583785 97.164722 150.583785 93.7016652 150.918574 93.7016652"></polygon>
                <polygon id="Fill-198" fill="#FFFFFF" points="129.380932 87.9470451 148.900466 87.9470451 148.900466 87.6122562 129.380932 87.6122562"></polygon>
                <path d="M123.354329,53.9406579 L123.354329,61.5410364 L125.195668,61.1868297 L125.195668,53.326655 L123.354329,53.9406579 Z M123.01954,61.946131 L123.01954,53.6996099 L125.530457,52.8626376 L125.530457,61.4633654 L123.01954,61.946131 Z" id="Fill-199" fill="#FFFFFF"></path>
                <path d="M143.94425,62.7017496 L143.94425,68.1420699 L145.191674,67.902361 L145.191674,62.2852722 L143.94425,62.7017496 Z M143.609461,68.5471645 L143.609461,62.4607016 L145.526463,61.8212547 L145.526463,68.1788967 L143.609461,68.5471645 Z" id="Fill-200" fill="#FFFFFF"></path>
                <polygon id="Fill-201" fill="#FFFFFF" points="109.237016 81.8406288 108.902227 81.8406288 108.902227 69.6610073 98.1749199 71.5954178 98.1749199 80.9808908 97.840131 80.9808908 97.840131 71.3155342 109.237016 69.2599301"></polygon>
                <polygon id="Fill-202" fill="#FFFFFF" points="134.818574 83.812067 134.483785 83.812067 134.483785 75.4081951 128.843261 76.1099127 128.801747 75.777802 134.818574 75.029214"></polygon>
                <polygon id="Fill-203" fill="#FFFFFF" points="113.123045 69.8500291 87.723278 64.9815284 87.7862183 64.6520961 113.135098 69.5112227 119.531575 68.7371907 119.531575 67.4415575 119.866364 67.4415575 119.866364 69.0338137"></polygon>
                <polygon id="Fill-204" fill="#FFFFFF" points="119.663817 69.0490131 87.7965968 62.1691004 87.8675721 61.8423464 119.734122 68.7222591"></polygon>
                <path d="M133.773697,74.5344629 L128.794716,73.7383348 L128.848952,73.4082329 L133.787089,74.2023523 L138.138006,73.8581892 L128.860335,72.0389461 L128.924614,71.710853 L139.399491,73.7651179 C139.481849,73.7811878 139.539432,73.8548413 139.535415,73.9385386 C139.530728,74.0222358 139.465109,74.0891936 139.381412,74.0958894 L133.773697,74.5344629 Z" id="Fill-205" fill="#FFFFFF"></path>
                <polygon id="Fill-206" fill="#FFFFFF" points="139.200961 73.9910335 139.53575 73.9910335 139.53575 72.9866667 139.200961 72.9866667"></polygon>
                <polygon id="Fill-207" fill="#FFFFFF" points="124.219156 61.3945997 123.884367 61.3945997 123.884367 54.3921543 123.123726 54.0794614 123.250277 53.7701164 124.219156 54.1685153"></polygon>
                <polygon id="Fill-208" fill="#FFFFFF" points="124.100105 54.4405648 124.003016 54.119837 125.314719 53.7227773 125.411808 54.0428355"></polygon>
                <polygon id="Fill-209" fill="#FFFFFF" points="144.400902 68.1188355 144.735691 68.1188355 144.735691 62.9570597 144.400902 62.9570597"></polygon>
                <polygon id="Fill-210" fill="#FFFFFF" points="144.543188 63.2496652 143.689476 62.723377 143.864236 62.4388064 144.592737 62.8874236 145.376143 62.6637846 145.467875 62.985182"></polygon>
                <path d="M135.407066,70.6742125 L138.80986,71.3786084 L138.80986,60.7651295 L135.407066,59.2920582 L135.407066,70.6742125 Z M139.144649,71.7903988 L135.072277,70.9467307 L135.072277,58.7818399 L139.144649,60.545508 L139.144649,71.7903988 Z" id="Fill-211" fill="#FFFFFF"></path>
                <path d="M112.474358,64.2253071 L119.055639,65.7934585 L118.94315,52.178262 L112.565421,49.3995138 L112.474358,64.2253071 Z M119.394445,66.2186405 L112.13823,64.4897904 L112.23331,48.8899651 L119.2766,51.9579709 L119.277269,52.0664425 L119.394445,66.2186405 Z" id="Fill-212" fill="#FFFFFF"></path>
                <line x1="94.4745648" y1="41.1487074" x2="94.4745648" y2="59.9296972" id="Fill-213" fill="#FFFFFF"></line>
                <polygon id="Fill-214" fill="#FFFFFF" points="94.6416245 60.0630102 94.3068355 59.9297642 94.3068355 41.1481048 94.6416245 41.3041164"></polygon>
                <line x1="95.0568297" y1="66.2166987" x2="95.0568297" y2="80.7773392" id="Fill-215" fill="#FFFFFF"></line>
                <polygon id="Fill-216" fill="#FFFFFF" points="94.8896361 80.7765357 95.224425 80.7765357 95.224425 66.2165648 94.8896361 66.2165648"></polygon>
                <line x1="100.072504" y1="67.2603028" x2="100.072504" y2="71.0829229" id="Fill-217" fill="#FFFFFF"></line>
                <polygon id="Fill-218" fill="#FFFFFF" points="99.9047744 71.0830568 100.239563 71.0830568 100.239563 67.2604367 99.9047744 67.2604367"></polygon>
                <line x1="112.87818" y1="69.6806259" x2="112.87818" y2="82.0611208" id="Fill-219" fill="#FFFFFF"></line>
                <polygon id="Fill-220" fill="#FFFFFF" points="112.710451 82.060786 113.04524 82.060786 113.04524 69.6802911 112.710451 69.6802911"></polygon>
                <line x1="106.266099" y1="87.2988937" x2="127.399316" y2="87.0263755" id="Fill-221" fill="#FFFFFF"></line>
                <polygon id="Fill-222" fill="#FFFFFF" points="106.267706 87.4662882 106.263689 87.1314993 127.396905 86.8589811 127.400923 87.19377"></polygon>
                <path d="M49.6445852,55.5008413 L49.6445852,62.0513217 L50.2719796,61.6763581 L50.2719796,55.0917293 L49.6445852,55.5008413 Z M49.3097962,62.6418894 L49.3097962,55.3193857 L50.6067686,54.4737089 L50.6067686,61.8658486 L49.3097962,62.6418894 Z" id="Fill-223" fill="#FFFFFF"></path>
                <path d="M64.0823581,46.1689345 L64.0823581,61.3060815 L66.7191557,60.1550771 L66.7191557,44.4608413 L64.0823581,46.1689345 Z M63.7475691,61.817639 L63.7475691,45.9874789 L67.0532751,43.8448297 L67.0532751,60.3740291 L63.7475691,61.817639 Z" id="Fill-224" fill="#FFFFFF"></path>
                <path d="M53.8712955,70.0085852 L53.8712955,76.7177555 L64.2055604,74.7324571 L64.0448617,66.4511179 L53.8712955,70.0085852 Z M53.5365066,77.1228501 L53.5365066,69.7715546 L64.3709461,65.9824134 L64.5450364,75.0076536 L53.5365066,77.1228501 Z" id="Fill-225" fill="#FFFFFF"></path>
                <polygon id="Fill-226" fill="#FFFFFF" points="106.265764 97.3844105 105.930975 97.3844105 105.930975 86.2479913 88.0150801 85.764556 88.0244541 85.4297671 106.265764 85.9225764"></polygon>
                <polygon id="Fill-227" fill="#FFFFFF" points="116.664978 96.5966521 116.999767 96.5966521 116.999767 87.2988937 116.664978 87.2988937"></polygon>
                <polygon id="Fill-228" fill="#FFFFFF" points="118.820349 96.3381951 119.155138 96.3381951 119.155138 87.2988937 118.820349 87.2988937"></polygon>
                <polygon id="Fill-229" fill="#FFFFFF" points="119.949927 96.3381951 120.284716 96.3381951 120.284716 87.1622999 119.949927 87.1622999"></polygon>
                <polygon id="Fill-230" fill="#FFFFFF" points="136.411499 95.0901019 136.746288 95.0901019 136.746288 87.7796507 136.411499 87.7796507"></polygon>
                <polygon id="Fill-231" fill="#FFFFFF" points="138.363988 94.8216012 138.698777 94.8216012 138.698777 87.9162445 138.363988 87.9162445"></polygon>
                <polygon id="Fill-232" fill="#FFFFFF" points="139.200961 94.8811936 139.53575 94.8811936 139.53575 87.9128967 139.200961 87.9128967"></polygon>
                <polygon id="Fill-233" fill="#FFFFFF" points="136.507584 93.687671 129.380597 93.4874672 129.380597 87.6614702 129.715386 87.6614702 129.715386 93.162722 136.516958 93.3528821"></polygon>
                <polygon id="Fill-234" fill="#FFFFFF" points="150.882617 94.0466987 139.531933 93.8692606 139.538629 93.5344716 150.889313 93.7119098"></polygon>
                <polygon id="Fill-235" fill="#FFFFFF" points="86.5387278 100.955269 86.5166317 100.62115 93.2124105 100.167846 93.2345066 100.501965"></polygon>
                <polygon id="Fill-236" fill="#FFFFFF" points="86.5341077 103.311916 86.4986201 102.979135 93.3169316 102.281435 93.3524192 102.614215"></polygon>
                <polygon id="Fill-237" fill="#FFFFFF" points="86.5498428 105.822163 86.5056507 105.490722 93.3125793 104.570052 93.3567715 104.901493"></polygon>
                <polygon id="Fill-238" fill="#FFFFFF" points="124.716049 97.2343581 124.689936 96.9002387 131.613371 96.382655 131.639485 96.7167744"></polygon>
                <polygon id="Fill-239" fill="#FFFFFF" points="124.737007 98.9593246 124.702859 98.6265444 131.464256 97.9295138 131.498405 98.262294"></polygon>
                <polygon id="Fill-240" fill="#FFFFFF" points="124.678151 100.80361 124.636638 100.471499 131.505837 99.6077438 131.54802 99.9398544"></polygon>
                <polygon id="Fill-241" fill="#FFFFFF" points="119.176699 53.4754352 119.141211 53.142655 125.716466 51.1915051 125.642143 48.9872547 125.976932 48.8426259 126.061968 51.4908064"></polygon>
                <polygon id="Fill-242" fill="#FFFFFF" points="55.4079767 94.936099 55.7427656 94.936099 55.7427656 86.7304221 55.4079767 86.7304221"></polygon>
                <path d="M127.567045,86.8588472 L128.655109,86.8588472 L128.655109,44.7926172 L127.567045,44.1525007 L127.567045,86.8588472 Z M128.989898,87.1936361 L127.232256,87.1936361 L127.232256,43.5672897 L128.989898,44.6011179 L128.989898,87.1936361 Z" id="Fill-243" fill="#FFFFFF"></path>
                <polygon id="Fill-244" fill="#FFFFFF" points="126.00425 86.024687 126.339039 86.024687 126.339039 82.9479767 126.00425 82.9479767"></polygon>
                <polygon id="Fill-245" fill="#FFFFFF" points="120.771499 67.7458806 121.106288 67.7458806 121.106288 66.4147598 120.771499 66.4147598"></polygon>
                <polygon id="Fill-246" fill="#FFFFFF" points="133.593246 75.2190393 133.928035 75.2190393 133.928035 74.3680058 133.593246 74.3680058"></polygon>
                <polygon id="Fill-247" fill="#FFFFFF" points="29.2309636 64.415869 29.1305269 64.2819534 54.616 45.181575 54.7171063 45.3161601"></polygon>
                <polygon id="Fill-248" fill="#FFFFFF" points="29.1835575 87.7840699 29.1775313 87.6166754 64.9162504 86.3779563 64.9222766 86.5453508"></polygon>
                <polygon id="Fill-249" fill="#FFFFFF" points="60.0521019 95.7451499 29.1691616 91.6125153 29.1919272 91.44646 60.074198 95.5790946"></polygon>
                <polygon id="Fill-250" fill="#FFFFFF" points="54.0978806 100.25007 29.1654789 95.7444803 29.1956099 95.5797642 54.1280116 100.085354"></polygon>
                <polygon id="Fill-251" fill="#FFFFFF" points="45.5645124 59.9298981 45.7319068 59.9298981 45.7319068 43.5674236 45.5645124 43.5674236"></polygon>
                <polygon id="Fill-252" fill="#FFFFFF" points="85.0481805 30.0573508 85.215575 30.0573508 85.215575 13.6948763 85.0481805 13.6948763"></polygon>
                <polygon id="Fill-253" fill="#FFFFFF" points="149.286143 67.0408151 149.453537 67.0408151 149.453537 50.6783406 149.286143 50.6783406"></polygon>
                <polygon id="Fill-254" fill="#FFFFFF" points="128.805764 56.1742358 128.973159 56.1742358 128.973159 39.8117613 128.805764 39.8117613"></polygon>
                <path d="M73.5217991,188.60529 C73.5217991,188.60529 34.6862824,207.344096 23.9730364,218.057342 C13.2597904,228.770588 -6.82754585,250.524504 3.4390917,265.09117 C13.7063988,279.658507 30.2222067,279.211898 41.3820611,276.086978 C52.5419156,272.962728 64.2561805,271.647007 67.7185677,274.078245 C71.1809549,276.510151 152.654521,282.828288 159.87324,272.996876 C185.18931,238.520981 137.354667,211.808172 125.748873,203.326629 C114.14308,194.845086 96.4200233,188.60529 96.4200233,188.60529 C96.4200233,188.60529 94.2787132,197.300428 92.4929491,202.88002 C90.7078544,208.460282 87.8059039,210.469016 87.8059039,210.469016 L73.5217991,188.60529 Z" id="Fill-255" fill="#4F71ED"></path>
                <path d="M137.752597,297.960279 C137.752597,307.205141 114.520253,314.699726 85.8603115,314.699726 C57.2010393,314.699726 33.9686958,307.205141 33.9686958,297.960279 C33.9686958,288.715418 57.2010393,281.220833 85.8603115,281.220833 C114.520253,281.220833 137.752597,288.715418 137.752597,297.960279" id="Fill-256" fill="#0C1F2C"></path>
                <path d="M143.890617,411.207191 C143.890617,411.912256 142.942495,413.015721 142.942495,413.015721 C142.942495,413.015721 114.189482,412.703028 85.5817671,412.703028 C55.9020582,412.703028 27.7442999,412.538311 27.7442999,412.538311 C27.7442999,412.538311 27.2722475,411.701339 27.2722475,411.207191 C27.2722475,404.893741 53.3784192,399.776157 85.5817671,399.776157 C117.785115,399.776157 143.890617,404.893741 143.890617,411.207191" id="Fill-257" fill="#0C1F2C"></path>
                <polygon id="Fill-258" fill="#1C3C50" points="80.8767103 405.00623 90.8447162 405.00623 90.8447162 306.887627 80.8767103 306.887627"></polygon>
                <path d="M92.3716885,302.18699 C93.8521252,304.254646 93.2863319,309.338751 93.8849345,314.213278 C93.2501747,315.512259 92.672329,316.775083 92.229738,317.880556 C92.0938137,318.220032 91.8936099,318.868853 91.6405095,319.770105 C91.4282533,318.875549 91.2139884,318.012463 90.995706,317.186873 C90.3100582,309.431822 89.8473799,298.663671 92.3716885,302.18699 M125.023654,292.171444 C124.354076,291.693365 58.9477001,292.171444 58.9477001,292.171444 L56.2740757,292.171444 C56.2740757,292.171444 50.3791121,311.336102 52.9161426,326.330629 C52.9154731,326.331968 52.9134643,326.336655 52.9134643,326.336655 C52.9134643,326.336655 53.4805968,336.474734 66.4255459,369.06108 C69.4808297,376.750512 72.5649054,383.471066 75.4969869,389.271619 C74.4732023,393.861575 73.8437991,396.700585 73.8437991,396.700585 L85.5065066,406.842681 C89.9437991,413.703176 92.8738719,417.047048 92.8738719,417.047048 L108.832591,414.281022 C108.832591,414.281022 109.208894,399.88108 104.434803,375.738111 C104.304905,375.082594 104.171659,374.419712 104.034396,373.749464 C107.174047,367.809639 110.090728,362.378023 112.134279,358.748911 C119.093872,346.388504 127.91623,319.082448 128.8677,316.111531 C129.0746,315.554443 129.222576,314.981284 129.287525,314.390047 C130.212882,305.994879 125.693231,292.648853 125.023654,292.171444" id="Fill-259" fill="#4E6574"></path>
                <path d="M81.3821747,181.677033 C81.3821747,181.677033 81.9821164,188.025971 79.1015924,190.381546 C76.2210684,192.736451 76.1259884,192.591822 76.1259884,192.591822 C76.1259884,192.591822 85.3507627,209.352696 87.8061048,210.468882 C90.2614469,211.585068 91.9708792,206.105913 93.8323057,200.871822 C96.0640087,194.59453 95.6977496,191.459566 95.6977496,191.459566 C95.6977496,191.459566 92.7201368,189.675141 91.6026114,186.010541 C90.4844163,182.346611 81.3821747,181.677033 81.3821747,181.677033" id="Fill-263" fill="#EDBEB1"></path>
                <path d="M85.6019884,140.818655 C75.1820175,140.483866 69.3647249,150.126457 70.6201834,158.018771 C70.6201834,158.018771 72.963706,175.093007 75.6420175,181.119208 C78.320329,187.145409 85.0161077,190.493298 90.0379418,187.480198 C93.7561077,185.249164 97.288131,173.845584 98.7370975,165.356006 C99.4284077,159.273828 100.765555,154.128806 99.4284077,148.111979 C99.624594,148.111979 95.460853,143.943575 95.0042009,143.55522 C93.4782329,141.326195 89.3328763,140.938509 85.6019884,140.818655 Z" id="Fill-264" fill="#FCCCBF"></path>
                <path d="M98.2748763,163.350121 C98.2748763,163.350121 100.06064,161.118418 100.506579,162.233934 C100.953188,163.350121 99.536361,168.594924 99.2959825,169.488141 C99.0562737,170.380688 97,170.827297 97,170.827297 L98.2748763,163.350121 Z" id="Fill-265" fill="#FCCCBF"></path>
                <path d="M70,163.170422 C70,163.170422 70.6568559,167.594993 71.1027948,168.822329 C71.5494032,170.050335 72.6347889,169.715546 72.8731587,169.380757 C73.1115284,169.045968 71.7388937,161.921659 71.7388937,161.921659 L70,163.170422 Z" id="Fill-266" fill="#FCCCBF"></path>
            </g>
            <g transform="translate(123.871907, 146.715895)">
                <mask id="mask-4" fill="white">
                    <use xlink:href="#path-3"></use>
                </mask>
                <g id="Clip-268"></g>
                <path d="M0.19216885,0.74657933 C1.3739738,6.06570597 0.751935953,15.0434061 1.68934498,20.3625328 L1.68934498,20.3625328 C1.82593886,20.3544978 1.87147016,20.5205531 1.91633188,20.6859389 L1.91633188,20.6859389 C1.96253275,20.8526638 2.00806405,21.0180495 2.14465793,21.0100146 L2.14465793,21.0100146 C2.20558952,19.9319942 2.31941776,13.6459971 3.50055313,13.5803785 L3.50055313,13.5803785 C3.51997089,13.5797089 3.51193595,13.5408734 3.51260553,13.520786 L3.51260553,13.520786 C3.5588064,12.7474236 3.56951965,12.0510626 3.54005822,11.4598253 L3.54005822,11.4598253 C3.34855895,7.62716157 2.82494905,3.46707424 0.782066958,0.484104803 L0.782066958,0.484104803 C0.585211063,0.63007278 0.389024745,0.74657933 0.19216885,0.74657933" id="Fill-267" mask="url(#mask-4)"></path>
            </g>
            <g transform="translate(99.767103, 158.768297)">
                <mask id="mask-6" fill="white">
                    <use xlink:href="#path-5"></use>
                </mask>
                <g id="Clip-272"></g>
                <path d="M0.493478894,3.92238719 C0.493478894,3.92238719 1.27487627,11.8642504 1.61100437,10.567278 L1.61100437,10.567278 C1.94780204,9.27030568 1.97726346,0.583871907 1.97726346,0.583871907 L1.97726346,0.583871907 L0.493478894,3.92238719 Z" id="Fill-271" mask="url(#mask-6)"></path>
            </g>
            <g transform="translate(9.000000, 136.078341)">
                <path d="M93.8570713,261.546262 C92.5065328,264.228591 90.9845822,266.904224 89.8215255,267.984923 C87.1385269,270.475753 87.6534323,272.084748 85.0306958,273.06568 C81.9111325,274.233424 79.3212052,279.426 84.4166929,281.193686 C89.5128501,282.960702 88.9001863,279.77552 96.1744803,285.687223 C103.449444,291.598926 107.284116,289.448911 107.284116,289.448911 C107.284116,289.448911 100.317828,282.02731 101.175557,276.791881 C101.596722,274.224719 102.556897,271.661575 103.426678,269.71779 C103.426678,269.71779 100.64793,266.890163 97.9481921,264.635694 C95.9702591,262.983846 93.8570713,261.546262 93.8570713,261.546262" id="Fill-273" fill="#FCCCBF"></path>
                <path d="M86.2467831,273.836029 C86.2467831,273.836029 87.9863464,270.341502 83.4071033,272.337514 C78.8278603,274.332856 78.6531004,276.069071 74.7206696,280.786917 C70.7882387,285.504093 73.4216885,288.509828 79.9929258,290.476378 C86.564163,292.442929 85.7968268,287.806771 95.239214,295.334166 C104.681601,302.86223 113.442358,299.448722 119.941951,300.647936 C126.442213,301.84715 128.509869,295.266539 123.46393,293.381677 C118.418661,291.497485 110.950189,290.732157 107.80853,285.870352 C104.666201,281.008547 108.472751,274.938154 106.65083,273.426917 C104.828908,271.91501 102.528908,268.878475 101.175022,268.780047 C99.8211354,268.682288 99.8713537,275.402172 98.2489665,276.561881 C96.6265793,277.72159 90.1182824,280.045694 87.3877438,279.60846 C84.6572052,279.171226 86.2467831,273.836029 86.2467831,273.836029" id="Fill-275" fill="#1C3C50"></path>
                <path d="M113.027622,280.865927 L119.367854,292.457659 C119.367854,292.457659 122.921974,303.841153 127.832658,303.841153 C132.742672,303.841153 127.832658,285.538911 127.832658,285.538911 L127.423546,278.35501 L113.027622,280.865927 Z" id="Fill-277" fill="#FCCCBF"></path>
                <g transform="translate(114.871907, 275.120815)">
                    <mask id="mask-8" fill="white">
                        <use xlink:href="#path-7"></use>
                    </mask>
                    <g id="Clip-280"></g>
                    <path d="M0.215606572,9.69655895 C0.215606572,9.69655895 0.169604076,18.3414789 1.48733333,23.6981019 C2.80506259,29.0547249 8.49647453,32.7374032 9.1660524,40.4375488 C9.83563028,48.1376943 25.5707103,49.811639 27.9142329,46.7985386 C30.2577555,43.7854381 22.222821,31.0634585 19.8792984,23.6981019 C17.5357758,16.3327453 12.9605502,7.6282329 12.9605502,7.6282329 C12.9605502,7.6282329 10.5587744,4.84881514 9.52762445,2.72290539 C8.49647453,0.597665211 6.25271907,-1.10774964 3.47464047,1.92142067 C0.697231441,4.9499214 4.14421834,8.96471033 3.47464047,10.6399942 C2.80506259,12.315278 0.215606572,9.69655895 0.215606572,9.69655895" id="Fill-279" fill="#1C3C50" mask="url(#mask-8)"></path>
                </g>
                <path d="M103.657421,0.882763385 C102.7863,0.741482454 101.906474,0.649750285 101.112355,0.658454797 C97.9881048,0.694612003 96.6482794,2.73615494 94.6636506,3.25239948 C92.3937816,3.84296717 91.2662125,3.93068187 91.2662125,3.93068187 C91.2662125,3.93068187 91.6833595,4.53397154 96.0101717,3.96215203 C95.2589053,4.3505072 94.4708122,4.77167168 93.6358486,5.22966295 C86.7164308,9.02416077 90.0895566,11.3511813 87.6650152,16.9441653 C85.2404737,22.5378188 84.5281556,23.7421308 84.6995676,23.7548527 C86.5415763,23.8934554 86.7235895,23.5310801 87.4299942,23.0704105 C86.9900815,23.4018515 89.1701175,27.3579247 89.4512762,27.4328883 C92.5520154,28.2596195 114.05683,19.3002853 114.05683,19.3002853 C116.858797,25.3008878 118.506476,27.621183 118.999867,26.2611707 C119.170922,25.7896654 122.463492,19.3632691 122.281991,15.6217584 C122.104571,11.9643738 119.180811,9.59206244 119.183406,9.23137533 C119.187121,8.71638687 115.060361,7.29025283 115.064076,6.77526436 C115.06779,6.2602759 110.710084,1.81012874 107.585164,0.917581435 C106.422777,0.585470809 105.151249,0.573418407 103.657421,0.882763385 Z" id="Fill-281" fill="#0D2330"></path>
                <path d="M82.3339709,24.6990917 C82.1946987,24.7158311 82.2013945,24.744623 82.3339709,24.6990917" id="Fill-283" fill="#0D2330"></path>
                <path d="M203.254245,153.066812 L1.18434643,153.066812 C0.963385735,153.066812 0.856922853,152.796303 1.01829112,152.645648 L14.387083,140.187482 C14.4319447,140.145298 14.4915371,140.121863 14.5531383,140.121863 L195.244084,140.121863 C195.326443,140.121863 195.403444,140.163377 195.448975,140.233683 L203.459135,152.691849 C203.56359,152.854556 203.447083,153.066812 203.254245,153.066812" id="Fill-287" fill="#AAB3BB"></path>
                <path d="M160.014178,146.594672 L81.0039884,146.594672 C79.3159825,146.594672 77.9473654,145.226055 77.9473654,143.538049 L77.9473654,94.7459098 C77.9473654,93.0572344 79.3159825,91.6892868 81.0039884,91.6892868 L160.014178,91.6892868 C161.702183,91.6892868 163.070801,93.0572344 163.070801,94.7459098 L163.070801,143.538049 C163.070801,145.226055 161.702183,146.594672 160.014178,146.594672" id="Fill-289" fill="#122B3B"></path>
                <polygon id="Fill-291" fill="#7C8C98" points="16.0964483 300.055895 20.0677147 300.055895 20.0677147 156.170975 16.0964483 156.170975"></polygon>
                <polygon id="Fill-293" fill="#AAB3BB" points="20.0677817 300.056163 31.9768937 279.863033 31.9768937 156.171243 20.0677817 156.171243"></polygon>
                <polygon id="Fill-294" fill="#7C8C98" points="188.179971 300.055895 192.151237 300.055895 192.151237 156.170975 188.179971 156.170975"></polygon>
                <polygon id="Fill-295" fill="#AAB3BB" points="188.180239 300.056163 176.271127 279.863033 176.271127 156.171243 188.180239 156.171243"></polygon>
                <g transform="translate(78.045124, 92.326055)">
                    <mask id="mask-10" fill="white">
                        <use xlink:href="#path-9"></use>
                    </mask>
                    <g id="Clip-297"></g>
                    <path d="M81.0416885,0.18279476 L3.66459971,0.18279476 C1.97659389,0.18279476 0.60797671,1.55141194 0.60797671,3.23941776 L0.60797671,4.94416303 C0.60797671,3.25615721 1.97659389,1.88754003 3.66459971,1.88754003 L81.0416885,1.88754003 C82.7303639,1.88754003 84.0989811,3.25615721 84.0989811,4.94416303 L84.0989811,3.23941776 C84.0989811,1.55141194 82.7303639,0.18279476 81.0416885,0.18279476" id="Fill-296" fill="#FFFFFF" opacity="0.176618304" mask="url(#mask-10)"></path>
                </g>
            </g>
            <g transform="translate(36.826783, 250.500466)">
                <mask id="mask-12" fill="white">
                    <use xlink:href="#path-11"></use>
                </mask>
                <g id="Clip-299"></g>
            </g>
            <g transform="translate(9.374090, 288.500466)" fill="#7C8C98" id="Fill-302">
                <path d="M202.778178,3.74931878 L0.912500728,3.74931878 C0.721001456,3.74931878 0.566328967,3.59464629 0.566328967,3.40314702 L0.566328967,0.558110626 C0.566328967,0.367280932 0.721001456,0.212608443 0.912500728,0.212608443 L202.778178,0.212608443 C202.969007,0.212608443 203.124349,0.367280932 203.124349,0.558110626 L203.124349,3.40314702 C203.124349,3.59464629 202.969007,3.74931878 202.778178,3.74931878"></path>
            </g>
            <g transform="translate(46.200873, 230.413130)">
                <mask id="mask-14" fill="white">
                    <use xlink:href="#path-13"></use>
                </mask>
                <g id="Clip-305"></g>
                <path d="M5.51330422,0.701717613 L5.30908297,1.61033479 L5.23609898,1.93708879 L5.18788937,2.15135371 L5.1811936,2.18148472 L0.571819505,22.7154623 C0.571819505,22.7154623 0.735866084,22.7201164 1.5313246,22.617671 L1.5313246,22.617671 C2.20291121,22.5299563 2.34285298,22.4690247 2.34285298,22.4690247 L2.34285298,22.4690247 L6.81496361,2.54841339 L6.86919942,2.30401747 L6.94285298,1.97659389 C6.94687045,1.95918486 6.94151383,1.94244541 6.94419214,1.92503639 L6.94419214,1.92503639 L7.13636099,1.06596798 C7.15912664,0.964861718 7.09551674,0.864425036 6.99441048,0.840989811 L6.99441048,0.840989811 L5.73828239,0.559097525 C5.72422125,0.556419214 5.71082969,0.55441048 5.69676856,0.55441048 L5.69676856,0.55441048 C5.61106259,0.55441048 5.53339156,0.614002911 5.51330422,0.701717613" id="Fill-304" mask="url(#mask-14)"></path>
            </g>
            <polygon id="Fill-306" fill="#4E6574" points="52.901607 233.469485 51.2685066 233.103226 51.3401514 232.781159 52.9732518 233.148087"></polygon>
            <g transform="translate(42.183406, 231.715895)">
                <polygon id="Fill-310" fill="#4E6574" points="1.89008443 0.770113537 0.218148472 0.849123726 0.20274818 0.519691412 1.87468413 0.440681223"></polygon>
                <path d="M28.9824774,38.2004541 C35.2316477,35.5221426 36.5928996,27.4872082 45.5210509,35.5221426 C54.4485328,43.5570771 69.6258544,47.5745444 60.2517642,48.0211528 C50.8776739,48.4670917 44.1818952,44.4496245 36.1469607,43.5570771 C28.1120262,42.6645298 28.9824774,38.2004541 28.9824774,38.2004541" id="Fill-313" fill="#FCCCBF"></path>
            </g>
        </g>
    </g>
</svg>